<svg xmlns="http://www.w3.org/2000/svg" width="1120" height="460" viewBox="0 0 1120 460" font-family="DejaVu Sans, Arial, sans-serif">
<line x1="0.0" y1="36.0" x2="0.0" y2="408.0" stroke="#e6e6e6" stroke-width="1"/>
<text x="0.0" y="428.0" font-size="12" text-anchor="middle" fill="#000000">10³</text>
<line x1="244.0" y1="36.0" x2="244.0" y2="408.0" stroke="#e6e6e6" stroke-width="1"/>
<text x="244.0" y="428.0" font-size="12" text-anchor="middle" fill="#000000">10⁴</text>
<line x1="488.0" y1="36.0" x2="488.0" y2="408.0" stroke="#e6e6e6" stroke-width="1"/>
<text x="488.0" y="428.0" font-size="12" text-anchor="middle" fill="#000000">10⁵</text>
<line x1="0.0" y1="408.0" x2="488.0" y2="408.0" stroke="#e6e6e6" stroke-width="1"/>
<text x="-8.0" y="412.0" font-size="12" text-anchor="end" fill="#000000">10⁻⁴</text>
<line x1="0.0" y1="346.0" x2="488.0" y2="346.0" stroke="#e6e6e6" stroke-width="1"/>
<text x="-8.0" y="350.0" font-size="12" text-anchor="end" fill="#000000">10⁻³</text>
<line x1="0.0" y1="284.0" x2="488.0" y2="284.0" stroke="#e6e6e6" stroke-width="1"/>
<text x="-8.0" y="288.0" font-size="12" text-anchor="end" fill="#000000">10⁻²</text>
<line x1="0.0" y1="222.0" x2="488.0" y2="222.0" stroke="#e6e6e6" stroke-width="1"/>
<text x="-8.0" y="226.0" font-size="12" text-anchor="end" fill="#000000">10⁻¹</text>
<line x1="0.0" y1="160.0" x2="488.0" y2="160.0" stroke="#e6e6e6" stroke-width="1"/>
<text x="-8.0" y="164.0" font-size="12" text-anchor="end" fill="#000000">10</text>
<line x1="0.0" y1="98.0" x2="488.0" y2="98.0" stroke="#e6e6e6" stroke-width="1"/>
<text x="-8.0" y="102.0" font-size="12" text-anchor="end" fill="#000000">10¹</text>
<line x1="0.0" y1="36.0" x2="488.0" y2="36.0" stroke="#e6e6e6" stroke-width="1"/>
<text x="-8.0" y="40.0" font-size="12" text-anchor="end" fill="#000000">10²</text>
<line x1="0.0" y1="408.0" x2="488.0" y2="408.0" stroke="#000000" stroke-width="1.4"/>
<line x1="0.0" y1="36.0" x2="0.0" y2="408.0" stroke="#000000" stroke-width="1.4"/>
<text x="244.0" y="22.0" font-size="13.5" font-weight="bold" text-anchor="middle" fill="#000000">Join: R join[R.b=S.b] S  (log–log)</text>
<text x="244.0" y="446.0" font-size="12.5" text-anchor="middle" fill="#000000">n (tuples per relation)</text>
<text x="16.0" y="222.0" font-size="12.5" text-anchor="middle" fill="#000000" transform="rotate(-90 16.0 222.0)">wall time (s)</text>
<polyline points="0.0,295.3 2.4,294.0 4.9,292.8 7.3,291.5 9.8,290.2 12.2,289.0 14.6,287.7 17.1,286.5 19.5,285.2 22.0,283.9 24.4,282.7 26.8,281.4 29.3,280.2 31.7,278.9 34.2,277.6 36.6,276.4 39.0,275.1 41.5,273.8 43.9,272.6 46.4,271.3 48.8,270.1 51.2,268.8 53.7,267.5 56.1,266.3 58.6,265.0 61.0,263.8 63.4,262.5 65.9,261.2 68.3,260.0 70.8,258.7 73.2,257.5 75.6,256.2 78.1,254.9 80.5,253.7 83.0,252.4 85.4,251.2 87.8,249.9 90.3,248.6 92.7,247.4 95.2,246.1 97.6,244.8 100.0,243.6 102.5,242.3 104.9,241.1 107.4,239.8 109.8,238.5 112.2,237.3 114.7,236.0 117.1,234.8 119.6,233.5 122.0,232.2 124.4,231.0 126.9,229.7 129.3,228.5 131.8,227.2 134.2,225.9 136.6,224.7 139.1,223.4 141.5,222.1 144.0,220.9 146.4,219.6 148.8,218.4 151.3,217.1 153.7,215.8 156.2,214.6 158.6,213.3 161.0,212.1 163.5,210.8 165.9,209.5 168.4,208.3 170.8,207.0 173.2,205.8 175.7,204.5 178.1,203.2 180.6,202.0 183.0,200.7 185.4,199.5 187.9,198.2 190.3,196.9 192.8,195.7 195.2,194.4 197.6,193.1 200.1,191.9 202.5,190.6 205.0,189.4 207.4,188.1 209.8,186.8 212.3,185.6 214.7,184.3 217.2,183.1 219.6,181.8 222.0,180.5 224.5,179.3 226.9,178.0 229.4,176.8 231.8,175.5 234.2,174.2 236.7,173.0 239.1,171.7 241.6,170.5 244.0,169.2 246.4,167.9 248.9,166.7 251.3,165.4 253.8,164.1 256.2,162.9 258.6,161.6 261.1,160.4 263.5,159.1 266.0,157.8 268.4,156.6 270.8,155.3 273.3,154.1 275.7,152.8 278.2,151.5 280.6,150.3 283.0,149.0 285.5,147.8 287.9,146.5 290.4,145.2 292.8,144.0 295.2,142.7 297.7,141.4 300.1,140.2 302.6,138.9 305.0,137.7 307.4,136.4 309.9,135.1 312.3,133.9 314.8,132.6 317.2,131.4 319.6,130.1 322.1,128.8 324.5,127.6 327.0,126.3 329.4,125.1 331.8,123.8 334.3,122.5 336.7,121.3 339.2,120.0 341.6,118.8 344.0,117.5 346.5,116.2 348.9,115.0 351.4,113.7 353.8,112.4 356.2,111.2 358.7,109.9 361.1,108.7 363.6,107.4 366.0,106.1 368.4,104.9 370.9,103.6 373.3,102.4 375.8,101.1 378.2,99.8 380.6,98.6 383.1,97.3 385.5,96.1 388.0,94.8 390.4,93.5 392.8,92.3 395.3,91.0 397.7,89.8 400.2,88.5 402.6,87.2 405.0,86.0 407.5,84.7 409.9,83.4 412.4,82.2 414.8,80.9 417.2,79.7 419.7,78.4 422.1,77.1 424.6,75.9 427.0,74.6 429.4,73.4 431.9,72.1 434.3,70.8 436.8,69.6 439.2,68.3 441.6,67.1 444.1,65.8 446.5,64.5 449.0,63.3 451.4,62.0 453.8,60.8 456.3,59.5 458.7,58.2 461.2,57.0 463.6,55.7 466.0,54.4 468.5,53.2 470.9,51.9 473.4,50.7 475.8,49.4 478.2,48.1 480.7,46.9 483.1,45.6 485.6,44.4 488.0,43.1" fill="none" stroke="#1f77b4" stroke-width="1.6"/>
<circle cx="0.0" cy="293.6" r="4" fill="#1f77b4"/>
<circle cx="73.5" cy="259.3" r="4" fill="#1f77b4"/>
<circle cx="146.9" cy="220.4" r="4" fill="#1f77b4"/>
<circle cx="220.4" cy="180.4" r="4" fill="#1f77b4"/>
<circle cx="293.8" cy="143.0" r="4" fill="#1f77b4"/>
<circle cx="367.3" cy="105.2" r="4" fill="#1f77b4"/>
<circle cx="440.7" cy="67.9" r="4" fill="#1f77b4"/>
<text x="478" y="28.1" font-size="12.5" text-anchor="end" fill="#1f77b4">measured slope ≈ 2.03 (least-squares fit)</text>
<line x1="534.0" y1="36.0" x2="534.0" y2="408.0" stroke="#e6e6e6" stroke-width="1"/>
<text x="534.0" y="428.0" font-size="12" text-anchor="middle" fill="#000000">10³</text>
<line x1="778.0" y1="36.0" x2="778.0" y2="408.0" stroke="#e6e6e6" stroke-width="1"/>
<text x="778.0" y="428.0" font-size="12" text-anchor="middle" fill="#000000">10⁴</text>
<line x1="1022.0" y1="36.0" x2="1022.0" y2="408.0" stroke="#e6e6e6" stroke-width="1"/>
<text x="1022.0" y="428.0" font-size="12" text-anchor="middle" fill="#000000">10⁵</text>
<line x1="534.0" y1="408.0" x2="1022.0" y2="408.0" stroke="#e6e6e6" stroke-width="1"/>
<text x="526.0" y="412.0" font-size="12" text-anchor="end" fill="#000000">10⁻⁴</text>
<line x1="534.0" y1="346.0" x2="1022.0" y2="346.0" stroke="#e6e6e6" stroke-width="1"/>
<text x="526.0" y="350.0" font-size="12" text-anchor="end" fill="#000000">10⁻³</text>
<line x1="534.0" y1="284.0" x2="1022.0" y2="284.0" stroke="#e6e6e6" stroke-width="1"/>
<text x="526.0" y="288.0" font-size="12" text-anchor="end" fill="#000000">10⁻²</text>
<line x1="534.0" y1="222.0" x2="1022.0" y2="222.0" stroke="#e6e6e6" stroke-width="1"/>
<text x="526.0" y="226.0" font-size="12" text-anchor="end" fill="#000000">10⁻¹</text>
<line x1="534.0" y1="160.0" x2="1022.0" y2="160.0" stroke="#e6e6e6" stroke-width="1"/>
<text x="526.0" y="164.0" font-size="12" text-anchor="end" fill="#000000">10</text>
<line x1="534.0" y1="98.0" x2="1022.0" y2="98.0" stroke="#e6e6e6" stroke-width="1"/>
<text x="526.0" y="102.0" font-size="12" text-anchor="end" fill="#000000">10¹</text>
<line x1="534.0" y1="36.0" x2="1022.0" y2="36.0" stroke="#e6e6e6" stroke-width="1"/>
<text x="526.0" y="40.0" font-size="12" text-anchor="end" fill="#000000">10²</text>
<line x1="534.0" y1="408.0" x2="1022.0" y2="408.0" stroke="#000000" stroke-width="1.4"/>
<line x1="534.0" y1="36.0" x2="534.0" y2="408.0" stroke="#000000" stroke-width="1.4"/>
<text x="778.0" y="22.0" font-size="13.5" font-weight="bold" text-anchor="middle" fill="#000000">Join vs select vs project  (log–log)</text>
<text x="778.0" y="446.0" font-size="12.5" text-anchor="middle" fill="#000000">n (tuples per relation)</text>
<text x="550.0" y="222.0" font-size="12.5" text-anchor="middle" fill="#000000" transform="rotate(-90 550.0 222.0)">wall time (s)</text>
<polyline points="534.0,295.3 536.4,294.0 538.9,292.8 541.3,291.5 543.8,290.2 546.2,289.0 548.6,287.7 551.1,286.5 553.5,285.2 556.0,283.9 558.4,282.7 560.8,281.4 563.3,280.2 565.7,278.9 568.2,277.6 570.6,276.4 573.0,275.1 575.5,273.8 577.9,272.6 580.4,271.3 582.8,270.1 585.2,268.8 587.7,267.5 590.1,266.3 592.6,265.0 595.0,263.8 597.4,262.5 599.9,261.2 602.3,260.0 604.8,258.7 607.2,257.5 609.6,256.2 612.1,254.9 614.5,253.7 617.0,252.4 619.4,251.2 621.8,249.9 624.3,248.6 626.7,247.4 629.2,246.1 631.6,244.8 634.0,243.6 636.5,242.3 638.9,241.1 641.4,239.8 643.8,238.5 646.2,237.3 648.7,236.0 651.1,234.8 653.6,233.5 656.0,232.2 658.4,231.0 660.9,229.7 663.3,228.5 665.8,227.2 668.2,225.9 670.6,224.7 673.1,223.4 675.5,222.1 678.0,220.9 680.4,219.6 682.8,218.4 685.3,217.1 687.7,215.8 690.2,214.6 692.6,213.3 695.0,212.1 697.5,210.8 699.9,209.5 702.4,208.3 704.8,207.0 707.2,205.8 709.7,204.5 712.1,203.2 714.6,202.0 717.0,200.7 719.4,199.5 721.9,198.2 724.3,196.9 726.8,195.7 729.2,194.4 731.6,193.1 734.1,191.9 736.5,190.6 739.0,189.4 741.4,188.1 743.8,186.8 746.3,185.6 748.7,184.3 751.2,183.1 753.6,181.8 756.0,180.5 758.5,179.3 760.9,178.0 763.4,176.8 765.8,175.5 768.2,174.2 770.7,173.0 773.1,171.7 775.6,170.5 778.0,169.2 780.4,167.9 782.9,166.7 785.3,165.4 787.8,164.1 790.2,162.9 792.6,161.6 795.1,160.4 797.5,159.1 800.0,157.8 802.4,156.6 804.8,155.3 807.3,154.1 809.7,152.8 812.2,151.5 814.6,150.3 817.0,149.0 819.5,147.8 821.9,146.5 824.4,145.2 826.8,144.0 829.2,142.7 831.7,141.4 834.1,140.2 836.6,138.9 839.0,137.7 841.4,136.4 843.9,135.1 846.3,133.9 848.8,132.6 851.2,131.4 853.6,130.1 856.1,128.8 858.5,127.6 861.0,126.3 863.4,125.1 865.8,123.8 868.3,122.5 870.7,121.3 873.2,120.0 875.6,118.8 878.0,117.5 880.5,116.2 882.9,115.0 885.4,113.7 887.8,112.4 890.2,111.2 892.7,109.9 895.1,108.7 897.6,107.4 900.0,106.1 902.4,104.9 904.9,103.6 907.3,102.4 909.8,101.1 912.2,99.8 914.6,98.6 917.1,97.3 919.5,96.1 922.0,94.8 924.4,93.5 926.8,92.3 929.3,91.0 931.7,89.8 934.2,88.5 936.6,87.2 939.0,86.0 941.5,84.7 943.9,83.4 946.4,82.2 948.8,80.9 951.2,79.7 953.7,78.4 956.1,77.1 958.6,75.9 961.0,74.6 963.4,73.4 965.9,72.1 968.3,70.8 970.8,69.6 973.2,68.3 975.6,67.1 978.1,65.8 980.5,64.5 983.0,63.3 985.4,62.0 987.8,60.8 990.3,59.5 992.7,58.2 995.2,57.0 997.6,55.7 1000.0,54.4 1002.5,53.2 1004.9,51.9 1007.4,50.7 1009.8,49.4 1012.2,48.1 1014.7,46.9 1017.1,45.6 1019.6,44.4 1022.0,43.1" fill="none" stroke="#1f77b4" stroke-width="1.6" stroke-dasharray="6 3"/>
<circle cx="534.0" cy="293.6" r="4" fill="#1f77b4"/>
<circle cx="607.5" cy="259.3" r="4" fill="#1f77b4"/>
<circle cx="680.9" cy="220.4" r="4" fill="#1f77b4"/>
<circle cx="754.4" cy="180.4" r="4" fill="#1f77b4"/>
<circle cx="827.8" cy="143.0" r="4" fill="#1f77b4"/>
<circle cx="901.3" cy="105.2" r="4" fill="#1f77b4"/>
<circle cx="974.7" cy="67.9" r="4" fill="#1f77b4"/>
<polyline points="573.0,407.3 575.5,406.6 577.9,406.0 580.4,405.3 582.8,404.6 585.2,403.9 587.7,403.2 590.1,402.6 592.6,401.9 595.0,401.2 597.4,400.5 599.9,399.8 602.3,399.2 604.8,398.5 607.2,397.8 609.6,397.1 612.1,396.4 614.5,395.8 617.0,395.1 619.4,394.4 621.8,393.7 624.3,393.0 626.7,392.4 629.2,391.7 631.6,391.0 634.0,390.3 636.5,389.6 638.9,389.0 641.4,388.3 643.8,387.6 646.2,386.9 648.7,386.2 651.1,385.6 653.6,384.9 656.0,384.2 658.4,383.5 660.9,382.8 663.3,382.2 665.8,381.5 668.2,380.8 670.6,380.1 673.1,379.4 675.5,378.8 678.0,378.1 680.4,377.4 682.8,376.7 685.3,376.0 687.7,375.4 690.2,374.7 692.6,374.0 695.0,373.3 697.5,372.6 699.9,372.0 702.4,371.3 704.8,370.6 707.2,369.9 709.7,369.2 712.1,368.6 714.6,367.9 717.0,367.2 719.4,366.5 721.9,365.8 724.3,365.2 726.8,364.5 729.2,363.8 731.6,363.1 734.1,362.4 736.5,361.8 739.0,361.1 741.4,360.4 743.8,359.7 746.3,359.0 748.7,358.4 751.2,357.7 753.6,357.0 756.0,356.3 758.5,355.6 760.9,355.0 763.4,354.3 765.8,353.6 768.2,352.9 770.7,352.2 773.1,351.6 775.6,350.9 778.0,350.2 780.4,349.5 782.9,348.8 785.3,348.2 787.8,347.5 790.2,346.8 792.6,346.1 795.1,345.4 797.5,344.8 800.0,344.1 802.4,343.4 804.8,342.7 807.3,342.0 809.7,341.4 812.2,340.7 814.6,340.0 817.0,339.3 819.5,338.6 821.9,338.0 824.4,337.3 826.8,336.6 829.2,335.9 831.7,335.2 834.1,334.6 836.6,333.9 839.0,333.2 841.4,332.5 843.9,331.8 846.3,331.2 848.8,330.5 851.2,329.8 853.6,329.1 856.1,328.4 858.5,327.8 861.0,327.1 863.4,326.4 865.8,325.7 868.3,325.0 870.7,324.4 873.2,323.7 875.6,323.0 878.0,322.3 880.5,321.6 882.9,321.0 885.4,320.3 887.8,319.6 890.2,318.9 892.7,318.2 895.1,317.6 897.6,316.9 900.0,316.2 902.4,315.5 904.9,314.8 907.3,314.2 909.8,313.5 912.2,312.8 914.6,312.1 917.1,311.4 919.5,310.8 922.0,310.1 924.4,309.4 926.8,308.7 929.3,308.0 931.7,307.4 934.2,306.7 936.6,306.0 939.0,305.3 941.5,304.6 943.9,304.0 946.4,303.3 948.8,302.6 951.2,301.9 953.7,301.2 956.1,300.6 958.6,299.9 961.0,299.2 963.4,298.5 965.9,297.8 968.3,297.2 970.8,296.5 973.2,295.8 975.6,295.1 978.1,294.4 980.5,293.8 983.0,293.1 985.4,292.4 987.8,291.7 990.3,291.0 992.7,290.4 995.2,289.7 997.6,289.0 1000.0,288.3 1002.5,287.6 1004.9,287.0 1007.4,286.3 1009.8,285.6 1012.2,284.9 1014.7,284.2 1017.1,283.6 1019.6,282.9 1022.0,282.2" fill="none" stroke="#2ca02c" stroke-width="1.6" stroke-dasharray="6 3"/>
<circle cx="534.0" cy="408.0" r="4" fill="#2ca02c"/>
<circle cx="607.5" cy="408.0" r="4" fill="#2ca02c"/>
<circle cx="680.9" cy="378.4" r="4" fill="#2ca02c"/>
<circle cx="754.4" cy="359.8" r="4" fill="#2ca02c"/>
<circle cx="827.8" cy="335.1" r="4" fill="#2ca02c"/>
<circle cx="901.3" cy="314.7" r="4" fill="#2ca02c"/>
<circle cx="974.7" cy="293.6" r="4" fill="#2ca02c"/>
<polyline points="582.8,407.8 585.2,407.1 587.7,406.4 590.1,405.8 592.6,405.1 595.0,404.4 597.4,403.8 599.9,403.1 602.3,402.5 604.8,401.8 607.2,401.1 609.6,400.5 612.1,399.8 614.5,399.1 617.0,398.5 619.4,397.8 621.8,397.1 624.3,396.5 626.7,395.8 629.2,395.2 631.6,394.5 634.0,393.8 636.5,393.2 638.9,392.5 641.4,391.8 643.8,391.2 646.2,390.5 648.7,389.9 651.1,389.2 653.6,388.5 656.0,387.9 658.4,387.2 660.9,386.5 663.3,385.9 665.8,385.2 668.2,384.6 670.6,383.9 673.1,383.2 675.5,382.6 678.0,381.9 680.4,381.2 682.8,380.6 685.3,379.9 687.7,379.2 690.2,378.6 692.6,377.9 695.0,377.3 697.5,376.6 699.9,375.9 702.4,375.3 704.8,374.6 707.2,373.9 709.7,373.3 712.1,372.6 714.6,372.0 717.0,371.3 719.4,370.6 721.9,370.0 724.3,369.3 726.8,368.6 729.2,368.0 731.6,367.3 734.1,366.7 736.5,366.0 739.0,365.3 741.4,364.7 743.8,364.0 746.3,363.3 748.7,362.7 751.2,362.0 753.6,361.4 756.0,360.7 758.5,360.0 760.9,359.4 763.4,358.7 765.8,358.0 768.2,357.4 770.7,356.7 773.1,356.0 775.6,355.4 778.0,354.7 780.4,354.1 782.9,353.4 785.3,352.7 787.8,352.1 790.2,351.4 792.6,350.7 795.1,350.1 797.5,349.4 800.0,348.8 802.4,348.1 804.8,347.4 807.3,346.8 809.7,346.1 812.2,345.4 814.6,344.8 817.0,344.1 819.5,343.5 821.9,342.8 824.4,342.1 826.8,341.5 829.2,340.8 831.7,340.1 834.1,339.5 836.6,338.8 839.0,338.1 841.4,337.5 843.9,336.8 846.3,336.2 848.8,335.5 851.2,334.8 853.6,334.2 856.1,333.5 858.5,332.8 861.0,332.2 863.4,331.5 865.8,330.9 868.3,330.2 870.7,329.5 873.2,328.9 875.6,328.2 878.0,327.5 880.5,326.9 882.9,326.2 885.4,325.6 887.8,324.9 890.2,324.2 892.7,323.6 895.1,322.9 897.6,322.2 900.0,321.6 902.4,320.9 904.9,320.2 907.3,319.6 909.8,318.9 912.2,318.3 914.6,317.6 917.1,316.9 919.5,316.3 922.0,315.6 924.4,314.9 926.8,314.3 929.3,313.6 931.7,313.0 934.2,312.3 936.6,311.6 939.0,311.0 941.5,310.3 943.9,309.6 946.4,309.0 948.8,308.3 951.2,307.7 953.7,307.0 956.1,306.3 958.6,305.7 961.0,305.0 963.4,304.3 965.9,303.7 968.3,303.0 970.8,302.3 973.2,301.7 975.6,301.0 978.1,300.4 980.5,299.7 983.0,299.0 985.4,298.4 987.8,297.7 990.3,297.0 992.7,296.4 995.2,295.7 997.6,295.1 1000.0,294.4 1002.5,293.7 1004.9,293.1 1007.4,292.4 1009.8,291.7 1012.2,291.1 1014.7,290.4 1017.1,289.8 1019.6,289.1 1022.0,288.4" fill="none" stroke="#ff7f0e" stroke-width="1.6" stroke-dasharray="6 3"/>
<circle cx="534.0" cy="408.0" r="4" fill="#ff7f0e"/>
<circle cx="607.5" cy="408.0" r="4" fill="#ff7f0e"/>
<circle cx="680.9" cy="389.3" r="4" fill="#ff7f0e"/>
<circle cx="754.4" cy="364.7" r="4" fill="#ff7f0e"/>
<circle cx="827.8" cy="341.1" r="4" fill="#ff7f0e"/>
<circle cx="901.3" cy="321.3" r="4" fill="#ff7f0e"/>
<circle cx="974.7" cy="295.6" r="4" fill="#ff7f0e"/>
<rect x="548.0" y="54.0" width="212" height="92" fill="#ffffff" fill-opacity="0.92" stroke="#cccccc" stroke-width="1"/>
<line x1="558.0" y1="66.0" x2="582.0" y2="66.0" stroke="#1f77b4" stroke-width="2.4" stroke-dasharray="6 3"/>
<text x="590" y="70.0" font-size="12.5" text-anchor="start" fill="#000000">join (slope 2.03)</text>
<line x1="558.0" y1="92.0" x2="582.0" y2="92.0" stroke="#2ca02c" stroke-width="2.4" stroke-dasharray="6 3"/>
<text x="590" y="96.0" font-size="12.5" text-anchor="start" fill="#000000">select (slope 1.10)</text>
<line x1="558.0" y1="118.0" x2="582.0" y2="118.0" stroke="#ff7f0e" stroke-width="2.4" stroke-dasharray="6 3"/>
<text x="590" y="122.0" font-size="12.5" text-anchor="start" fill="#000000">project (slope 1.07)</text>
</svg>
